<svg id="visual" viewBox="0 0 900 600" width="900" height="600" xmlns="http://www.w3.org/2000/svg" xmlns:xlink="http://www.w3.org/1999/xlink" version="1.1"><rect x="0" y="0" width="900" height="600" fill="#001220"></rect><path d="M0 438L21.5 436.5C43 435 86 432 128.8 425.7C171.7 419.3 214.3 409.7 257.2 398.3C300 387 343 374 385.8 368.2C428.7 362.3 471.3 363.7 514.2 372.5C557 381.3 600 397.7 642.8 405.5C685.7 413.3 728.3 412.7 771.2 412.3C814 412 857 412 878.5 412L900 412L900 601L878.5 601C857 601 814 601 771.2 601C728.3 601 685.7 601 642.8 601C600 601 557 601 514.2 601C471.3 601 428.7 601 385.8 601C343 601 300 601 257.2 601C214.3 601 171.7 601 128.8 601C86 601 43 601 21.5 601L0 601Z" fill="#0066ff"></path><path d="M0 431L21.5 425.7C43 420.3 86 409.7 128.8 410.7C171.7 411.7 214.3 424.3 257.2 425C300 425.7 343 414.3 385.8 408C428.7 401.7 471.3 400.3 514.2 409.3C557 418.3 600 437.7 642.8 450.3C685.7 463 728.3 469 771.2 459.3C814 449.7 857 424.3 878.5 411.7L900 399L900 601L878.5 601C857 601 814 601 771.2 601C728.3 601 685.7 601 642.8 601C600 601 557 601 514.2 601C471.3 601 428.7 601 385.8 601C343 601 300 601 257.2 601C214.3 601 171.7 601 128.8 601C86 601 43 601 21.5 601L0 601Z" fill="#007aff"></path><path d="M0 465L21.5 462C43 459 86 453 128.8 458C171.7 463 214.3 479 257.2 481.5C300 484 343 473 385.8 467.5C428.7 462 471.3 462 514.2 459.7C557 457.3 600 452.7 642.8 449.7C685.7 446.7 728.3 445.3 771.2 444C814 442.7 857 441.3 878.5 440.7L900 440L900 601L878.5 601C857 601 814 601 771.2 601C728.3 601 685.7 601 642.8 601C600 601 557 601 514.2 601C471.3 601 428.7 601 385.8 601C343 601 300 601 257.2 601C214.3 601 171.7 601 128.8 601C86 601 43 601 21.5 601L0 601Z" fill="#008cff"></path><path d="M0 501L21.5 501C43 501 86 501 128.8 498.3C171.7 495.7 214.3 490.3 257.2 487C300 483.7 343 482.3 385.8 489.2C428.7 496 471.3 511 514.2 518C557 525 600 524 642.8 522.8C685.7 521.7 728.3 520.3 771.2 517.5C814 514.7 857 510.3 878.5 508.2L900 506L900 601L878.5 601C857 601 814 601 771.2 601C728.3 601 685.7 601 642.8 601C600 601 557 601 514.2 601C471.3 601 428.7 601 385.8 601C343 601 300 601 257.2 601C214.3 601 171.7 601 128.8 601C86 601 43 601 21.5 601L0 601Z" fill="#2b9dfc"></path><path d="M0 535L21.5 540.7C43 546.3 86 557.7 128.8 560.7C171.7 563.7 214.3 558.3 257.2 555.8C300 553.3 343 553.7 385.8 550.8C428.7 548 471.3 542 514.2 541.8C557 541.7 600 547.3 642.8 549.5C685.7 551.7 728.3 550.3 771.2 547.7C814 545 857 541 878.5 539L900 537L900 601L878.5 601C857 601 814 601 771.2 601C728.3 601 685.7 601 642.8 601C600 601 557 601 514.2 601C471.3 601 428.7 601 385.8 601C343 601 300 601 257.2 601C214.3 601 171.7 601 128.8 601C86 601 43 601 21.5 601L0 601Z" fill="#4facf7"></path></svg>